<svg
  width="154"
  height="42"
  viewBox="0 0 154 42"
  fill="none"
  xmlns="http://www.w3.org/2000/svg"
>
  <path
    d="M52.9872 10.1726H44.2734V6.75195H65.754V10.1726H57.0402V33.9877H52.9954V10.1726H52.9872Z"
    fill="white"
  />
  <path
    d="M62.3987 24.2599C62.3987 18.1156 66.095 14.0303 71.6962 14.0303C77.2973 14.0303 80.9936 18.1156 80.9936 24.2599C80.9936 24.649 80.9531 25.0381 80.9125 25.3866H66.2409C66.4355 29.2045 68.4943 31.4579 71.8096 31.4579C74.2576 31.4579 75.9761 30.1367 76.7137 27.8427H80.645C79.5913 31.9281 76.3246 34.4976 71.8096 34.4976C66.1274 34.4976 62.3906 30.4123 62.3906 24.268L62.3987 24.2599ZM77.0704 22.4685C76.7623 19.0802 74.7764 17.0619 71.7043 17.0619C68.6321 17.0619 66.6057 19.0883 66.2571 22.4685H77.0785H77.0704Z"
    fill="white"
  />
  <path
    d="M106.637 18.4237C105.972 17.5644 104.886 17.1024 103.565 17.1024C102.244 17.1024 101.149 17.5725 100.412 18.4237C99.674 19.2424 99.2443 20.4826 99.2443 22.4361V33.9951H95.3535V21.8119C95.3535 20.0611 95.005 19.0073 94.3403 18.2697C93.6432 17.4915 92.6705 17.1024 91.3817 17.1024C90.2549 17.1024 89.2822 17.451 88.577 18.0751C87.6043 18.9343 87.1018 20.2961 87.1018 22.4361V33.9951H83.2109V14.5328H86.9072V16.3242C88.1555 14.849 90.0604 14.0303 92.3949 14.0303C95.0374 14.0303 97.1044 15.157 98.2716 16.9889C99.5929 15.1246 101.773 14.0303 104.537 14.0303C106.637 14.0303 108.388 14.7274 109.555 15.9352C110.763 17.1024 111.419 18.7398 111.419 21.5039V33.9951H107.529V21.8119C107.529 20.1745 107.221 19.1694 106.637 18.4237Z"
    fill="white"
  />
  <path
    d="M114.332 14.5328H118.028V16.7133C119.471 15.003 121.571 14.0303 124.1 14.0303C129.393 14.0303 132.894 18.1156 132.894 24.2599C132.894 30.4042 129.352 34.4895 123.986 34.4895C121.611 34.4895 119.625 33.5979 118.231 32.0416V41.4201H114.34V14.5328H114.332ZM123.516 31.4579C126.937 31.4579 129.004 28.7344 129.004 24.2599C129.004 19.7855 126.945 17.0619 123.516 17.0619C120.087 17.0619 118.028 19.7855 118.028 24.2599C118.028 28.7344 120.087 31.4579 123.516 31.4579Z"
    fill="white"
  />
  <path
    d="M134.312 24.2599C134.312 18.1156 138.244 14.0303 144.153 14.0303C150.062 14.0303 154.002 18.1156 154.002 24.2599C154.002 30.4042 150.111 34.4895 144.153 34.4895C138.195 34.4895 134.312 30.4042 134.312 24.2599ZM144.153 31.4579C147.849 31.4579 150.103 28.7344 150.103 24.2599C150.103 19.7855 147.849 17.0619 144.153 17.0619C140.457 17.0619 138.203 19.7855 138.203 24.2599C138.203 28.7344 140.457 31.4579 144.153 31.4579Z"
    fill="white"
  />
  <path
    d="M26.0019 4.3362L21.6657 0L9.1396 12.5261C8.88221 12.7835 8.46491 12.7835 8.20752 12.5261L4.33619 8.65481L0 12.991L4.33502 17.326C6.73125 19.7223 10.6159 19.7223 13.0121 17.326L26.0031 4.33503L26.0019 4.3362Z"
    fill="#F54D42"
  />
  <path
    d="M30.4847 33.1217L36.4081 31.5345L31.8232 14.4235C31.729 14.0719 31.9377 13.7105 32.2893 13.6163L37.5776 12.1992L35.9904 6.27588L30.0687 7.86261C26.7954 8.73969 24.8531 12.1039 25.7301 15.3772L30.4852 33.1233L30.4847 33.1217Z"
    fill="#FFCC24"
  />
  <path
    d="M3.36841 22.6137L1.78125 28.5371L18.8923 33.122C19.2438 33.2162 19.4525 33.5776 19.3583 33.9292L17.9413 39.2175L23.8646 40.8047L25.4514 34.8829C26.3284 31.6096 24.3861 28.2454 21.1128 27.3683L3.36681 22.6133L3.36841 22.6137Z"
    fill="#9664FE"
  />
</svg>
